<svg xmlns="http://www.w3.org/2000/svg" width="150" height="60" viewBox="0 0 150 60">
    <defs>
        <linearGradient id="7w8m68kp2a" x1="112.582%" x2="0%" y1="70.875%" y2="70.875%">
            <stop offset="0%" stop-color="#FFEEDB"/>
            <stop offset="100%" stop-color="#C7A683"/>
        </linearGradient>
    </defs>
    <g fill="none" fill-rule="evenodd">
        <g fill="url(#7w8m68kp2a)" transform="translate(-885 -231)">
            <g>
                <g>
                    <path d="M31.471.607l7.569 7.568h10.703c1.144 0 2.081.937 2.081 2.082V20.96l7.569 7.568c.81.81.81 2.134 0 2.943l-7.569 7.569v10.703c0 1.145-.937 2.081-2.08 2.081H39.04l-7.569 7.569c-.81.81-2.133.81-2.943 0l-7.568-7.569H10.256c-1.144 0-2.08-.936-2.08-2.081V39.04l-7.57-7.57c-.808-.808-.808-2.133 0-2.942l7.57-7.568V10.257c0-1.145.936-2.082 2.08-2.082H20.96L28.528.607c.81-.81 2.134-.81 2.943 0zm85.722 35.107c-.5 2.03-1.024 3.464-1.573 4.305v12.838h-2.245v-10.76c-.55.346-1.198.62-1.946.816v-1.336c1.796-1.187 2.943-3.141 3.443-5.863h2.32zm6.438 0v2.524h4.566v1.558h-1.572c-.1 3.76.549 6.877 1.946 9.35v2.079c-1.547-1.731-2.57-3.364-3.069-4.898-.598-1.583-.898-3.76-.898-6.53h-.973v8.014h2.47v1.484h-2.47v3.562h-2.321v-3.562h-2.62V47.96c-.45.94-1.248 2.054-2.396 3.34v-2.152c1.397-2.474 2.046-5.59 1.947-9.35h-1.423v-1.56h4.492v-2.523h2.32zm23.144 7.347v7.347c.1 1.633-.674 2.4-2.32 2.3h-1.872v-1.41h.898c.648.05.948-.272.899-.964v-.52h-8.684v3.043H133.3v-9.796h13.475zm-50.328-7.347v3.973h1.172v1.546h-1.172v11.624h-2.198V41.233h-1.392v-1.546h1.392v-3.973h2.198zm11.428 10.669v.809H110v1.398h-2.125v1.692c.048 1.619-.733 2.403-2.344 2.355h-1.685v-1.472h.879c.683.048 1-.294.952-1.03V48.59h-8.424v-1.398h8.424v-.81h2.198zm-6.74 2.722c.488.785.83 1.644 1.026 2.575h-2.198c-.146-.834-.415-1.692-.806-2.575h1.979zm-11.582-13.39v1.662h-4.621v12.39H90v1.662H72.857v-1.663h5.068v-12.39h-4.62v-1.662h16.248zm-6.932 1.661h-2.385v12.39h2.385v-12.39zm61.759 9.767h-8.684v1.336h8.684v-1.336zm-124.484-20.7c0 1.882.006 3.755.006 5.634-.09 1.77 1.544 2.815 1.544 2.815.722.577 1.868 1.23 2.893 2.021 1.601 1.237 2.235 2.365 2.235 4.333v7.036h2.842v-7.667l.002-.402v-.796c-.004-1.839-.036-3.52-.12-4.525-.086-1.007-.525-1.59-1.174-2.077-1.233-.925-2.743-1.73-4.038-2.55-1.104-.698-3.827-2.247-4.19-3.823zm20.606 0c-.362 1.575-3.086 3.124-4.19 3.823-1.295.819-2.805 1.624-4.038 2.549-.65.487-1.088 1.07-1.173 2.077-.085 1.005-.117 2.686-.12 4.525v8.865h2.843v-7.036c0-1.968.633-3.096 2.235-4.333 1.025-.792 2.172-1.444 2.894-2.021 0 0 1.634-1.045 1.543-2.815 0-1.88.006-3.752.006-5.635zm80.808 13.353h-1.048c0 3.414-.5 6.086-1.497 8.015h2.545v-8.015zm-45.695-.38c.149 2.62.596 5.037 1.341 7.253h-1.938c-.646-1.813-1.168-4.23-1.565-7.253h2.162zm13.714 0c-.298 2.72-.82 5.138-1.565 7.253H85.9c.746-2.216 1.193-4.633 1.342-7.253h2.087zm15.396-3.702v1.325h1.612V35.86h1.978v1.178h1.465v1.25h-5.055v.883h4.323v7.137h-1.979v-1.104h-2.344v1.03h-2.124v-1.03h-2.418v1.104h-1.978v-7.137h4.396v-.883h-4.982v-1.25h4.982v-1.325h2.124zm39.655 8.757h-8.684v1.336h8.684v-1.336zm-37.31-1.767h-2.345v1.324h2.344v-1.324zm-4.47 0h-2.417v1.324h2.418v-1.324zm38.785-6.99v1.262h7.186v1.558h-9.207c-.749.644-1.748 1.288-2.995 1.93 2.146 0 3.643-.025 4.492-.074 1.048 0 2.021-.049 2.92-.149-.3-.395-.625-.766-.974-1.113h2.097c.898.792 1.721 1.881 2.47 3.265h-2.396c-.1-.247-.225-.493-.374-.742-2.945.249-5.84.371-8.684.371h-2.62v-1.558c1.198-.594 2.22-1.236 3.07-1.93h-4.941v-1.558h7.186v-1.262h2.77zm-34.316 4.71h-2.344v1.103h2.344v-1.104zm-4.468 0h-2.418v1.103h2.418v-1.104zM91.429 8.57L79.915 29.748c-.619 1.023-1.892 1.086-3.11 1.067l-.382-.007-.374-.007c-1.342-.016-1.717.368-2.175.628l3.171-5.803 2.57-4.737c-.32-.23-.765-.41-1.327-.489l-.388-.052-.386-.05c-1.216-.164-2.359-.408-3.092-1.702L70 8.616c1.893 1.648 5.14-.187 6.185 2.175l4 9.03 4.938-9.083c.05-.083.112-.161.17-.229.31-.359.628-.597 1.13-.77 1.79-.614 3.505.202 5.006-1.168zM30.11 13.636c-4.212 0-7.627 3.416-7.627 7.628 0 4.211 3.415 7.626 7.627 7.626s7.628-3.415 7.628-7.626c0-4.212-3.416-7.628-7.628-7.628zM99.272 10c4.208 0 7.763 2.81 8.894 6.66.331 1.127.405 2.174.405 3.305v8.383h-4.003v-7.573c0-.818.022-1.726-.147-2.55-.49-2.4-2.61-4.204-5.15-4.204-2.902 0-5.256 2.358-5.256 5.264 0 2.908 2.354 5.265 5.257 5.265.23 0 .456-.014.678-.043l.047-.006.075-.011h.001c.387-.06.76-.162 1.115-.3 1.028-.378 1.842-.956 2.338-1.369v.02c-.174.287-.405.64-.572 1.03-.185.435-.256.95-.245 1.279.03.818.056 1.402-.475 2.113-.887 1.185-2.52 1.297-2.887 1.308H99.272c-5.12 0-9.272-4.158-9.272-9.286C90 14.158 94.152 10 99.272 10zm15.976-10v11.35c1.522-1.076 3.375-1.707 5.373-1.707 5.179 0 9.379 4.238 9.379 9.464 0 5.227-4.2 9.464-9.379 9.464-2.866 0-5.431-1.297-7.151-3.342-.916-1.089-2.254-2.496-1.58-4.06.244-.564.343-1.13.347-1.666.01-1.471-.673-2.929-.787-3.161l-.016-.033 2.183 2.663c1.09 1.329 1.952 2.66 3.081 3.868.307.329.655.619 1.034.862l.232.141c.784.45 1.691.706 2.657.706 2.978 0 5.392-2.437 5.392-5.442 0-3.005-2.414-5.441-5.392-5.441-2.522 0-4.598 1.568-5.12 3.678l-1.824-2.225-.616-.75-1.632-1.991V4.742c0-2.218.933-2.38 2.403-3.088 1.04-.5 1.416-1.654 1.416-1.654zm25.466 10c5.128 0 9.286 4.159 9.286 9.285 0 5.128-4.158 9.286-9.286 9.286-5.127 0-9.285-4.158-9.285-9.286 0-5.126 4.158-9.285 9.285-9.285zm-110.61 4.195c3.912 0 7.083 3.172 7.083 7.083 0 3.912-3.171 7.084-7.083 7.084-3.912 0-7.083-3.172-7.083-7.084 0-3.911 3.171-7.083 7.083-7.083zm-1.056 12.12l-2.176.094-.311.623-.21-.083c1.076.714 2.366 1.13 3.753 1.13.278 0 .552-.017.823-.05l.247-.64-2.126-1.073zm3.319-3.34l-2.891 1.457-.22 1.714 2.113 1.067 2.179-1.332.394-1.827-1.575-1.08zm-8.196-.82l-.718.546c.375 1.762 1.432 3.27 2.882 4.237l.353-.698-.904-2.195-1.613-1.89zm11.587-.019l-.023.174-.075-.01.013-.093-1.467 1.79-.422 1.951.861.315.056.026c1.098-1.008 1.863-2.372 2.114-3.908l-1.057-.245zm104.956-8.115c-2.907 0-5.264 2.358-5.264 5.264 0 2.908 2.357 5.266 5.264 5.266s5.265-2.358 5.265-5.266c0-2.906-2.358-5.264-5.265-5.264zM30.34 18.891l-2.5.482-.396 3.197.002-.001 1.971 1.617 2.84-1.431.34-2.387-2.257-1.476zm-4.076-.874l-2.03 1.503v2.33l1.539 1.801 1.402-.908.421-3.395-1.332-1.331zm8.997-1.173l-.757.335.256 2.495.006-.001.943 2.281.01-.072 1.132.257c.036-.282.054-.569.054-.86 0-1.694-.62-3.243-1.644-4.435zm-2.664-.836l-2.25.537.043 2.086 2.453 1.604 1.677-.492-.272-2.655c-.358-.249-1.171-.805-1.65-1.08zm-5.254-.946c-1.58.704-2.843 1.993-3.513 3.592l.38.579 1.879-1.392-.012-.012 1.642-1.743-.026.011-.35-1.035zm2.762-.584c-.898 0-1.757.174-2.54.491l.353 1.03 2.403.3 1.925-.46-.086-1.044c-.648-.205-1.34-.317-2.055-.317z" transform="translate(741 231) translate(144)"/>
                </g>
            </g>
        </g>
    </g>
</svg>
