<svg xmlns="http://www.w3.org/2000/svg" width="56" height="56" viewBox="0 0 56 56">
    <defs>
        <linearGradient id="15nu5lrj4b" x1="50%" x2="50%" y1=".412%" y2="107.765%">
            <stop offset="0%" stop-color="#FFDEBB"/>
            <stop offset="77.03%" stop-color="#B49372"/>
            <stop offset="100%" stop-color="#E3C09C"/>
        </linearGradient>
        <linearGradient id="fj64jt6f8a" x1="50%" x2="50%" y1="0%" y2="98.299%">
            <stop offset="0%" stop-color="#FFECD9"/>
            <stop offset="100%" stop-color="#FFEAD5"/>
        </linearGradient>
    </defs>
    <g fill="none" fill-rule="evenodd">
        <g>
            <g>
                <g transform="translate(-994 -385) translate(994 268) translate(0 117)">
                    <circle cx="28" cy="28" r="27.5" fill="url(#15nu5lrj4b)" stroke="url(#fj64jt6f8a)"/>
                    <g fill="#FFF">
                        <g>
                            <path d="M9.944 9.55v1.973h.564c.772 0 1.158-.339 1.158-1.001 0-.648-.386-.971-1.143-.971h-.579zm7.674-2.56V1.472C17.618.662 16.95 0 16.134 0H4.26c-.817 0-1.484.662-1.484 1.472V6.99H0v9.198h2.776v5.886c0 .81.667 1.471 1.484 1.471h11.874c.816 0 1.484-.662 1.484-1.471v-5.887h2.746V6.99h-2.746zm-1.484-5.15v5.15H4.26V1.84h11.874zm-3.073 8.638c0 .633-.237 1.133-.697 1.5-.46.383-1.04.56-1.737.545h-.683v2.134h-1.32V8.535h2.122c1.543 0 2.315.648 2.315 1.943zm-9.529 2.781l-.46 1.398H1.647l2.257-6.122h1.543l2.212 6.122h-1.44l-.46-1.398H3.532zm6.665 9.55c-.416 0-.742-.323-.742-.735s.326-.736.742-.736c.415 0 .742.324.742.736 0 .397-.327.736-.742.736zm5.937-2.207H4.26v-4.415h11.874v4.415zm1.424-8.623c-.46.382-1.039.559-1.736.544h-.683v2.134h-1.32V8.535h2.122c1.543 0 2.3.648 2.3 1.943.015.618-.222 1.118-.683 1.5zm-1.84-2.428h-.579v1.972h.564c.772 0 1.158-.339 1.158-1.001.015-.648-.371-.971-1.143-.971zm-11.043.044h-.03c-.014.176-.044.353-.103.515l-.713 2.134h1.648l-.698-2.12c-.06-.132-.089-.308-.104-.53z" transform="translate(17 16) translate(.818 .545)"/>
                        </g>
                    </g>
                </g>
            </g>
        </g>
    </g>
</svg>
