<svg xmlns="http://www.w3.org/2000/svg" width="56" height="56" viewBox="0 0 56 56">
    <defs>
        <linearGradient id="49s342rk6b" x1="43.409%" x2="43.409%" y1="5.673%" y2="102.972%">
            <stop offset="0%" stop-color="#FFF"/>
            <stop offset="53.014%" stop-color="#D5DFF5"/>
            <stop offset="100%" stop-color="#FFF"/>
        </linearGradient>
        <linearGradient id="ltoo3bb0ka" x1="50%" x2="50%" y1="0%" y2="100%">
            <stop offset="0%" stop-color="#ABB4DA"/>
            <stop offset="24.596%" stop-color="#D5E2FF"/>
            <stop offset="100%" stop-color="#ABB4DA"/>
        </linearGradient>
        <linearGradient id="qqb76b0d5d" x1="50%" x2="50%" y1="0%" y2="88.445%">
            <stop offset="0%" stop-color="#67749B"/>
            <stop offset="100%" stop-color="#434A63"/>
        </linearGradient>
        <linearGradient id="9cdooincme" x1="50%" x2="50%" y1="0%" y2="88.445%">
            <stop offset="0%" stop-color="#67749B"/>
            <stop offset="100%" stop-color="#434A63"/>
        </linearGradient>
        <filter id="29yhpti4sc" width="202.4%" height="202.4%" x="-51.2%" y="-51.2%" filterUnits="objectBoundingBox">
            <feOffset dy="3" in="SourceAlpha" result="shadowOffsetOuter1"/>
            <feGaussianBlur in="shadowOffsetOuter1" result="shadowBlurOuter1" stdDeviation="4"/>
            <feColorMatrix in="shadowBlurOuter1" result="shadowMatrixOuter1" values="0 0 0 0 0.651596165 0 0 0 0 0.704610521 0 0 0 0 0.805819746 0 0 0 1 0"/>
            <feMerge>
                <feMergeNode in="shadowMatrixOuter1"/>
                <feMergeNode in="SourceGraphic"/>
            </feMerge>
        </filter>
    </defs>
    <g fill="none" fill-rule="evenodd">
        <g>
            <g transform="translate(-803 -271) translate(803 271)">
                <circle cx="28" cy="28" r="27.5" fill="url(#49s342rk6b)" stroke="url(#ltoo3bb0ka)"/>
                <g filter="url(#29yhpti4sc)" transform="translate(7 6)">
                    <g>
                        <path fill="url(#qqb76b0d5d)" d="M3.549 17.949c0-.544-.44-.984-.985-.984H.986c-.545 0-.986.44-.986.984 0 .543.44.983.986.983h1.578c.544 0 .985-.44.985-.983zM.986 6.247h1.578c.544 0 .985-.441.985-.983 0-.544-.44-.984-.985-.984H.986c-.545 0-.986.44-.986.984 0 .542.44.983.986.983zm0 8.456h1.578c.544 0 .985-.44.985-.983 0-.543-.44-.984-.985-.984H.986c-.545 0-.986.441-.986.984 0 .543.44.983.986.983zm20.761-7.989c-.104 0-.205.014-.3.038v4.054c.095.024.196.038.3.038.681 0 1.798-.55 1.798-1.23v-1.67c0-.68-1.117-1.23-1.798-1.23zm0-4.328c-.104 0-.205.016-.3.04v4.052c.098.026.199.04.3.04.681 0 1.798-.55 1.798-1.23v-1.67c0-.68-1.117-1.232-1.798-1.232zm-20.76 8.09h1.577c.544 0 .985-.442.985-.984 0-.544-.44-.983-.985-.983H.986c-.545 0-.986.44-.986.983 0 .542.44.983.986.983zm20.76.565c-.104 0-.205.014-.3.037v4.055c.095.023.196.037.3.037.681 0 1.798-.55 1.798-1.228V12.27c0-.678-1.117-1.228-1.798-1.228z" transform="translate(9.545 9.545)"/>
                        <path fill="url(#9cdooincme)" d="M18.957.477H3.314c-1.123 0-2.041.912-2.041 2.025V3.68h1.114c.877 0 1.59.706 1.59 1.576 0 .872-.713 1.577-1.59 1.578H1.273v1.084h1.114c.877 0 1.59.705 1.59 1.577 0 .871-.713 1.576-1.59 1.577H1.273v1.084h1.114c.877 0 1.59.705 1.59 1.577 0 .87-.713 1.576-1.59 1.576H1.273v1.084h1.114c.877.001 1.59.706 1.59 1.578 0 .87-.713 1.576-1.59 1.576H1.273v1.178c0 1.113.918 2.025 2.041 2.025h15.643c1.123 0 2.043-.912 2.043-2.025V2.502C21 1.39 20.08.477 18.957.477zm-5.939 18.469h-1.964v-1.949h1.964v1.949zm3.118-8.688c-.288.513-.85 1.137-1.687 1.873-.564.494-.93.859-1.103 1.092-.173.236-.302.504-.384.809-.083.303-.13.798-.144 1.483H11.16c-.006-.229-.01-.4-.01-.514 0-.671.095-1.252.287-1.74.141-.366.369-.737.682-1.112.23-.271.643-.67 1.242-1.191.597-.524.985-.94 1.164-1.25.179-.311.268-.65.268-1.018 0-.666-.262-1.25-.787-1.754-.523-.503-1.167-.755-1.928-.755-.733 0-1.347.228-1.838.684-.493.456-.816 1.17-.97 2.139l-1.774-.209c.161-1.3.635-2.294 1.424-2.985.79-.69 1.832-1.036 3.131-1.036 1.375 0 2.47.37 3.29 1.112.818.741 1.225 1.64 1.225 2.69 0 .608-.142 1.17-.43 1.682z" transform="translate(9.545 9.545)"/>
                    </g>
                </g>
            </g>
        </g>
    </g>
</svg>
