<svg xmlns="http://www.w3.org/2000/svg" xmlns:xlink="http://www.w3.org/1999/xlink" width="56" height="56" viewBox="0 0 56 56">
    <defs>
        <linearGradient id="ju3txmqxnb" x1="43.409%" x2="43.409%" y1="5.673%" y2="102.972%">
            <stop offset="0%" stop-color="#FFF"/>
            <stop offset="53.014%" stop-color="#D5DFF5"/>
            <stop offset="100%" stop-color="#FFF"/>
        </linearGradient>
        <linearGradient id="9izgihlgsa" x1="50%" x2="50%" y1="0%" y2="100%">
            <stop offset="0%" stop-color="#ABB4DA"/>
            <stop offset="24.596%" stop-color="#D5E2FF"/>
            <stop offset="100%" stop-color="#ABB4DA"/>
        </linearGradient>
        <linearGradient id="3pu1hljlxe" x1="115.94%" x2="115.94%" y1="100%" y2="-19.994%">
            <stop offset="0%" stop-color="#394466"/>
            <stop offset="100%" stop-color="#434A63"/>
        </linearGradient>
        <filter id="iyrwhkgaxc" width="193.1%" height="193.1%" x="-46.6%" y="-36.2%" filterUnits="objectBoundingBox">
            <feOffset dy="3" in="SourceAlpha" result="shadowOffsetOuter1"/>
            <feGaussianBlur in="shadowOffsetOuter1" result="shadowBlurOuter1" stdDeviation="4"/>
            <feColorMatrix in="shadowBlurOuter1" values="0 0 0 0 0.650980392 0 0 0 0 0.705882353 0 0 0 0 0.803921569 0 0 0 1 0"/>
        </filter>
        <path id="uanlm4hngd" d="M28.5 43c-3.848.01-7.54-1.519-10.254-4.247C15.518 36.039 13.99 32.347 14 28.5c-.01-3.848 1.52-7.54 4.247-10.253C20.961 15.52 24.652 13.99 28.5 14c3.847-.01 7.54 1.518 10.253 4.246C41.48 20.96 43.01 24.652 43 28.5c.01 3.848-1.52 7.54-4.247 10.253C36.04 41.48 32.348 43.01 28.5 43zm0-21.75l-5.74 7.116h3.323v7.384h4.834v-7.384h3.323L28.5 21.25z"/>
    </defs>
    <g fill="none" fill-rule="evenodd">
        <g>
            <g>
                <g transform="translate(-803 -657) translate(803 271) translate(0 386)">
                    <rect width="55" height="55" x=".5" y=".5" fill="url(#ju3txmqxnb)" stroke="url(#9izgihlgsa)" rx="6"/>
                    <g>
                        <use fill="#000" filter="url(#iyrwhkgaxc)" xlink:href="#uanlm4hngd"/>
                        <use fill="url(#3pu1hljlxe)" xlink:href="#uanlm4hngd"/>
                    </g>
                </g>
            </g>
        </g>
    </g>
</svg>
