<svg xmlns="http://www.w3.org/2000/svg" width="56" height="56" viewBox="0 0 56 56">
    <defs>
        <linearGradient id="yqs7dmfk3b" x1="50%" x2="50%" y1=".412%" y2="107.765%">
            <stop offset="0%" stop-color="#FFDEBB"/>
            <stop offset="77.03%" stop-color="#B49372"/>
            <stop offset="100%" stop-color="#E3C09C"/>
        </linearGradient>
        <linearGradient id="0ei5srdxda" x1="50%" x2="50%" y1="0%" y2="98.299%">
            <stop offset="0%" stop-color="#FFECD9"/>
            <stop offset="100%" stop-color="#FFEAD5"/>
        </linearGradient>
    </defs>
    <g fill="none" fill-rule="evenodd">
        <g>
            <g>
                <g transform="translate(-994 -654) translate(994 268) translate(0 386)">
                    <rect width="55" height="55" x=".5" y=".5" fill="url(#yqs7dmfk3b)" stroke="url(#0ei5srdxda)" rx="6"/>
                    <path fill="#FFF" d="M28.5 43c-3.848.01-7.54-1.519-10.254-4.247C15.518 36.039 13.99 32.347 14 28.5c-.01-3.848 1.52-7.54 4.247-10.253C20.961 15.52 24.652 13.99 28.5 14c3.847-.01 7.54 1.518 10.253 4.246C41.48 20.96 43.01 24.652 43 28.5c.01 3.848-1.52 7.54-4.247 10.253C36.04 41.48 32.348 43.01 28.5 43zm0-21.75l-5.74 7.116h3.323v7.384h4.834v-7.384h3.323L28.5 21.25z"/>
                </g>
            </g>
        </g>
    </g>
</svg>
